<svg version="1.1" width="800" height="600" xmlns="http://www.w3.org/2000/svg">
<defs>
  <filter id="f1">
    <feGaussianBlur in="SourceGraphic" stdDeviation="10" />
  </filter>
  <g id="o" fill="white">
    <path d="M0,8
      a8,8 1,0,0 16,0
      a8,8 1,0,0 -16,0
      m12,0
      a4,4 1,0,1 -8,0
      a4,4 1,0,1 8,0
      " />
  </g>
  <g id="f" fill="white">
    <rect width="4" height="16" />
    <rect width="10" height="4" />
    <rect y="5" width="12" height="4" />
  </g>
  <g id="s" fill="white">
    <rect width="4" height="10" />
    <rect x="10" y="6" width="4" height="8" />
    <rect width="10" height="4" />
    <rect y="6" width="12" height="4" />
    <rect y="12" width="14" height="4" />
  </g>
  <g id="t" fill="white">
    <rect x="4" width="4" height="16" />
    <rect width="12" height="4" />
  </g>
  <g id="a" fill="white">
    <path d="M0,16L8,0 16,16 11,16 8,10 5,16" />
  </g>
  <g id="g" fill="white">
    <path d="
      M16,8
      L12,8
      A4,4 1,1,1 10,4
      L15,4
      A8,8 0,1,0 16,8
      " />
    <rect x="8" y="6" width="6" height="4" />
  </g>
  <g id="e" fill="white">
    <rect width="4" height="16" />
    <rect width="10" height="4" />
    <rect y="6" width="12" height="4" />
    <rect y="12" width="14" height="4" />
  </g>
</defs>
<rect id="canvas" width="100%" height="100%" fill="#111" stroke="#333" />
<rect id="group" x="20" y="420" width="760" height="120" rx="20" stroke="white" opacity="0.1" />
<g id="logo" transform="translate(30,390)">
  <g transform="translate(0,44)">
    <rect width="60" height="20" fill="yellow" rx="3" />
  </g>
  <g transform="translate(0,22)">
    <rect width="40" height="20" fill="#f60" rx="2" />
    <path fill="black" d="M0,20l0,4 42,0 -1,-4z" />
    <g transform="translate(42,2)">
      <use href="#s" x="0" />
      <use href="#t" x="13" />
      <use href="#a" x="23" />
      <use href="#g" x="38" />
      <use href="#e" x="55" />
    </g>
  </g>
  <g>
    <rect width="20" height="20" fill="#e00" rx="1" />
    <path fill="black" d="M0,20l0,4 22,0 -1,-4z" />
    <g transform="translate(22,2)">
      <use href="#o" x="0" />
      <use href="#f" x="17" />
      <use href="#f" x="30" />
    </g>
  </g>
</g>
<g id="boxes" transform="translate(30,470)" font-family="arial" font-size="12" >
  <g transform="translate(0,0)">
    <rect width="160" height="90" stroke="white" rx="4" />
    <text x="8" y="19" fill="white" font-weight="bold" font-size="11">HTTP REQUEST LIBRARY</text>
    <g fill="white" opacity="0.6">
      <text x="4" y="36">• Typed request &amp; response</text>
      <text x="4" y="51">• Uses native fetch()</text>
      <text x="4" y="66">• Builtin caching</text>
      <text x="4" y="81">• Small footprint &lt; 5kb</text>
    </g>
    <path d="M170,40l10,0m-5,-5l0,10" stroke="white" />
  </g>
  <g transform="translate(190,0)">
    <rect width="160" height="90" stroke="#e00" rx="4" />
    <text x="8" y="19" fill="white" font-weight="bold" font-size="11">DEV USAGE</text>
    <g fill="white" opacity="0.6">
      <text x="4" y="36">• Instant mock responses</text>
      <text x="12" y="51">for faster development</text>
      <text x="4" y="66">• Navigate and use your app</text>
      <text x="12" y="81">without starting a backend</text>
    </g>
    <path d="M170,40l10,0m-5,-5l0,10" stroke="white" />
  </g>
  <g transform="translate(380,0)">
    <rect width="160" height="90" stroke="#f60" rx="4" />
    <text x="8" y="19" fill="white" font-weight="bold" font-size="11">PLAYWRIGHT USAGE</text>
    <g fill="white" opacity="0.6">
      <text x="4" y="36">• Uses mock to capture &amp;</text>
      <text x="12" y="51">respond to actual requests</text>
      <text x="4" y="66">• Option to override mock</text>
      <text x="12" y="81">for specific tests</text>
    </g>
    <path d="M170,40l10,0m-5,-5l0,10" stroke="white" />
  </g>
  <g transform="translate(570,0)">
    <rect width="160" height="90" stroke="yellow" rx="4" />
    <text x="8" y="19" fill="white" font-weight="bold" font-size="11">PRODUCTION USAGE</text>
    <g fill="white" opacity="0.6">
      <text x="4" y="36">• Uses mock in Pact files</text>
      <text x="12" y="51">to verify compatibility</text>
      <text x="4" y="66">• Tree-shaking keeps mock</text>
      <text x="12" y="81">data out of  final build</text>
    </g>
  </g>
</g>
<g id="code" opacity="0.8" transform="translate(456,20) scale(0.7)" font-family="monospace">
  <rect filter="url(#f1)" transform="translate(-20,20)" width="430" height="70" fill="black" opacity="0.4" rx="4" />
  <rect width="460" height="70" fill="#002b36" rx="4" />
  <text transform="translate(22,41)" fill="#839496" font-size="16">
<tspan x="0" y="0">
  <tspan fill="#859900">await</tspan>
  <tspan>todoService</tspan><tspan fill="#dc322f">.</tspan><tspan fill="#268bd2">getItems</tspan><tspan fill="#dc322f">({</tspan>
  <tspan fill="#268bd2">search</tspan><tspan fill="#dc322f">:</tspan><tspan fill="#2aa198">'mow'</tspan>
  <tspan fill="#dc322f">})</tspan>
</tspan>
  </text>
</g>
<g id="code" opacitay="0.2" transform="translate(230,87)" font-family="monospace">
  <rect filter="url(#f1)" transform="translate(-20,20)" width="430" height="270" fill="black" opacity="0.4" rx="4" />
  <rect width="430" height="270" fill="#002b36" rx="4" />
  <g fill="#000" opacity="0.3">
    <rect x="92" y="22" width="120" height="26" rx="4" />
    <rect x="35" y="52" width="87" height="26" rx="4" />
    <rect x="54" y="82" width="186" height="26" rx="4" />
    <rect x="54" y="112" width="113" height="26" rx="4" />
    <rect x="60" y="142" width="118" height="26" rx="4" />
    <rect x="60" y="172" width="352" height="26" rx="4" />
  </g>
  <g transform="translate(260,302)">
    <path fill="red" d="M-50,0 Q -150,0 -160,60 l-10,-4 20,20 20,-20 l-10,4 Q -140,0 -50,0" />
    <path fill="yellow" transform="scale(-1,1)" d="M-50,0 Q -150,0 -160,60 l-10,-4 20,20 20,-20 l-10,4 Q -140,0 -50,0" />
    <path fill="#f60" d="M0,0 L-10,60 l-10,-4 20,20 20,-20 l-10,4 L 0,0" />
  </g>
  <g transform="translate(310,397)" font-size="30">
    <text x="-190">🔥</text>
    <text x="0">🎭</text>
    <text x="190" y="0">🤝</text>
  </g>
  <g stroke="white" fill="none" opacity="0.5">
    <path d="M107,19l0,-5 -116,0 0,10 -60,0" />
    <path d="M35,52m-4,13l-40,0 0,-10 -50,0" />
    <path d="M54,82m-4,13l-90,0" />
    <path d="M54,112m-4,13l-80,0" />
    <path d="M54,142m-4,13l-70,0" /> 
    <path d="M54,172m-4,13l-60,0 0,100 270,0 0,10" /> 
  </g>
  <g fill="white" opacity="0.6" font-size="14" text-anchor="end">
    <text x="-75" y="30">service name</text>
    <text x="-64" y="60">method name</text>
    <text x="-50" y="100">typed request data</text>
    <text x="-40" y="130">typed response data</text>
    <text x="-30" y="160">endpoint signature</text>
    <text x="-20" y="229">mock response</text>
  </g>
  <text transform="translate(22,41)" fill="#839496" font-size="16">
<tspan x="0" y="0">
  <tspan fill="#859900">const</tspan>
  <tspan fill="#dc322f">{</tspan>
  <tspan>todoService</tspan>
  <tspan fill="#dc322f">}</tspan>
  <tspan fill="#859900">=</tspan>
  <tspan fill="#268bd2">service</tspan><tspan fill="#dc322f">({</tspan>
</tspan>
<tspan x="20" y="30">
  <tspan>getItems</tspan><tspan fill="#dc322f">:</tspan>
  <tspan fill="#268bd2">endpoint</tspan><tspan fill="#dc322f">&lt;</tspan>
</tspan>
<tspan x="40" y="60">
  <tspan fill="#dc322f">{</tspan>
  <tspan fill="#268bd2">search</tspan><tspan fill="#dc322f">:</tspan><tspan fill="#b58900">string</tspan>
  <tspan fill="#dc322f">},</tspan>
</tspan>
<tspan x="40" y="90">
  <tspan fill="#b58900">TodoItem</tspan><tspan fill="#dc322f">[]</tspan>
</tspan>
<tspan x="20" y="120">
  <tspan fill="#dc322f">>(</tspan><tspan fill="#2aa198">'GET /items'</tspan><tspan fill="#dc322f">,</tspan>
</tspan>
<tspan x="40" y="150">
  <tspan fill="#dc322f">(</tspan><tspan fill="#268bd2">req</tspan><tspan fill="#dc322f">)</tspan>
  <tspan fill="#859900">=&gt;</tspan>
  <tspan fill="#dc322f">[ {</tspan>
  <tspan fill="#268bd2">text</tspan><tspan fill="#dc322f">:</tspan><tspan fill="#2aa198">'mow the lawn'</tspan>
  <tspan fill="#dc322f">} ]</tspan>
</tspan>
<tspan x="20" y="180">
  <tspan fill="#dc322f">),</tspan>
</tspan>
<tspan x="0" y="210">
  <tspan fill="#dc322f">})</tspan>
</tspan>
  </text>
</g>
</svg>
