<svg version="1.1" viewBox="0 0 200 64" width="600" xmlns="http://www.w3.org/2000/svg">
<style>

g { fill: black; }
.shade { fill: white; }

</style>
<defs>
  <g id="o">
    <path d="M0,8
      a8,8 1,0,0 16,0
      a8,8 1,0,0 -16,0
      m12,0
      a4,4 1,0,1 -8,0
      a4,4 1,0,1 8,0
      " />
  </g>
  <g id="f">
    <rect width="4" height="16" />
    <rect width="10" height="4" />
    <rect y="5" width="12" height="4" />
  </g>
  <g id="s">
    <rect width="4" height="10" />
    <rect x="10" y="6" width="4" height="8" />
    <rect width="10" height="4" />
    <rect y="6" width="12" height="4" />
    <rect y="12" width="14" height="4" />
  </g>
  <g id="t">
    <rect x="4" width="4" height="16" />
    <rect width="12" height="4" />
  </g>
  <g id="a">
    <path d="M0,16L8,0 16,16 11,16 8,10 5,16" />
  </g>
  <g id="g">
    <path d="
      M16,8
      L12,8
      A4,4 1,1,1 10,4
      L15,4
      A8,8 0,1,0 16,8
      " />
    <rect x="8" y="6" width="6" height="4" />
  </g>
  <g id="e">
    <rect width="4" height="16" />
    <rect width="10" height="4" />
    <rect y="6" width="12" height="4" />
    <rect y="12" width="14" height="4" />
  </g>
</defs>
<g transform="translate(0,44)">
  <rect width="60" height="20" fill="yellow" rx="3" />
</g>
<g transform="translate(0,22)">
  <rect width="40" height="20" fill="#f60" rx="2" />
  <path class="shade" d="M0,20l0,4 42,0 -1,-4z" />
  <g transform="translate(42,2)">
    <use href="#s" x="0" />
    <use href="#t" x="13" />
    <use href="#a" x="23" />
    <use href="#g" x="38" />
    <use href="#e" x="55" />
  </g>
</g>
<g>
  <rect width="20" height="20" fill="#e00" rx="1" />
  <path class="shade" d="M0,20l0,4 22,0 -1,-4z" />
  <g transform="translate(22,2)">
    <use href="#o" x="0" />
    <use href="#f" x="17" />
    <use href="#f" x="30" />
  </g>
</g>
</svg>
